<?xml version="1.0" encoding="utf-8"?>
<!-- Generator: Adobe Illustrator 20.1.0, SVG Export Plug-In . SVG Version: 6.00 Build 0)  -->
<svg version="1.2" baseProfile="tiny" id="Capa_1" xmlns="http://www.w3.org/2000/svg" xmlns:xlink="http://www.w3.org/1999/xlink"
	 x="0px" y="0px" viewBox="0 0 595.3 800" xml:space="preserve">
<path fill="#26EDE7" stroke="#211915" stroke-miterlimit="10" d="M271.4,290.4c0,0-3.7-1-3.7-3.1s1.5-5.4,0.6-6.5
	c-0.9-1.1,0-9.6,3.8-9.8c3.7-0.3,9.6-3.3,9.9-4.8c0.4-1.5,3.9-8.1,5.7-7.7c1.8,0.4,8.7-0.1,8.9-1.8c0,0,3.4,9.9-0.8,15
	c0,0,3.9,0.7,4.7-1.6c0,0-2.5,9.7-5.6,10.1c0,0,8.7-0.2,10,2.6c1.4,2.8,4.9,1.9,4.9,1.9s-9.7,6-16.8,4.6c0,0-4.3,0-8.6,6.4
	c0,0-0.8-1.7-4-1.7l-0.7-1l-1.8-2.2l-0.8-1.5C277,289.3,274.5,285.5,271.4,290.4z"/>
</svg>
