<?xml version="1.0" encoding="utf-8"?>
<!-- Generator: Adobe Illustrator 20.1.0, SVG Export Plug-In . SVG Version: 6.00 Build 0)  -->
<svg version="1.2" baseProfile="tiny" id="Capa_2" xmlns="http://www.w3.org/2000/svg" xmlns:xlink="http://www.w3.org/1999/xlink"
	 x="0px" y="0px" viewBox="0 0 595.3 800" xml:space="preserve">
<path fill="#9037A0" d="M305.1,283.5c-2.6-3.6-9.6-3.2-9.6-3.2s-0.5,0.1-1.1,0.2c0,0-0.1,0.1-0.2,0.1c0.3-0.2,0.5-0.3,0.5-0.3
	c3.2-1,5.6-10.1,5.6-10.1c-0.4,1.6-2.9,1.7-4.7,1.6l0,0c3.9-6,0.8-15,0.8-15c0,0.2-0.1,0.3-0.1,0.5c0.1-0.6,0.1-1,0.1-1
	c-0.4,1.5-4,3.2-7.3,2.4c-3.3-0.7-4.1,1.9-4.1,1.9s-3.3,6.1-5.1,7.6c-1.8,1.5-6.6,2.7-6.6,2.7s-1.4,0.2-3.2,1.1
	c-1.8,0.9-2.3,7-2.3,7.7s0.5,1.6,0.5,1.6l0.1,1.2c0,0-0.7,3.9-0.8,5.4c-0.1,1.6,3.7,2.5,3.7,2.5c0.7-0.9,1.8-2,2.5-2.4
	c2.7-0.8,3.9,2.8,3.9,2.8l2.5,3.3c3.4,0,4,1.7,4,1.7c0.6-0.7,1.1-1.4,1.6-2.1l0,0c2.1-2.1,5.3-4,5.3-4c11.2,1.3,18-4.3,19-5.1
	C309.5,285.1,307.4,286.6,305.1,283.5z M289.9,264.3c0.2-0.1,0.4-0.2,0.6-0.3C290.3,264.1,290.1,264.2,289.9,264.3z M291,283.1
	C291,283.2,291,283.2,291,283.1C291,283.2,291,283.2,291,283.1z M290.7,283.5l-0.1,0.1C290.7,283.6,290.7,283.6,290.7,283.5z
	 M290.5,283.9c0,0,0,0.1-0.1,0.1C290.5,284,290.5,284,290.5,283.9z M291.8,282.3C291.7,282.3,291.7,282.4,291.8,282.3
	C291.7,282.4,291.7,282.3,291.8,282.3z M294.1,280.6l-0.1,0.1C294,280.6,294.1,280.6,294.1,280.6z M293.8,280.8l-0.1,0.1
	C293.7,280.8,293.7,280.8,293.8,280.8z M293.3,281.1L293.3,281.1L293.3,281.1z M292.9,281.3C292.9,281.4,292.9,281.4,292.9,281.3
	C292.9,281.4,292.9,281.4,292.9,281.3z M292.6,281.6C292.5,281.7,292.5,281.7,292.6,281.6C292.5,281.7,292.5,281.7,292.6,281.6z
	 M292.2,281.9l-0.1,0.1C292.1,282,292.1,282,292.2,281.9z M296.4,257.2c-0.4,2.1-2.1,4.1-4.1,5.6C294.3,261.3,296,259.3,296.4,257.2
	z M291.4,263.4c-0.2,0.1-0.5,0.3-0.7,0.4C290.9,263.7,291.2,263.6,291.4,263.4z M292.2,262.8c-0.2,0.2-0.5,0.3-0.7,0.5
	C291.8,263.2,292,263,292.2,262.8z M289.7,264.4c-0.2,0.1-0.4,0.2-0.6,0.3C289.3,264.6,289.5,264.5,289.7,264.4z M288.8,264.8
	c-0.2,0.1-0.3,0.1-0.5,0.2C288.4,264.9,288.6,264.9,288.8,264.8z M287.9,265.1c-0.1,0-0.3,0.1-0.4,0.1
	C287.6,265.2,287.7,265.2,287.9,265.1z M287,265.4c-0.1,0-0.2,0.1-0.3,0.1C286.8,265.4,286.9,265.4,287,265.4z M287.8,290.9
	c0,0,0,0.1-0.1,0.1C287.7,291,287.7,290.9,287.8,290.9z M290.2,285.7v0.1C290.1,285.8,290.2,285.7,290.2,285.7z M289.9,286.6v0.1
	V286.6z M289.6,287.6L289.6,287.6L289.6,287.6z M289.1,288.6L289.1,288.6L289.1,288.6z M288.5,289.7c0,0,0,0.1-0.1,0.1
	C288.5,289.7,288.5,289.7,288.5,289.7z M290.4,284.4v0.1C290.3,284.5,290.3,284.4,290.4,284.4z"/>
</svg>
