<?xml version="1.0" encoding="utf-8"?>
<!-- Generator: Adobe Illustrator 20.1.0, SVG Export Plug-In . SVG Version: 6.00 Build 0)  -->
<svg version="1.0" id="Capa_1" xmlns="http://www.w3.org/2000/svg" xmlns:xlink="http://www.w3.org/1999/xlink" x="0px" y="0px"
	 viewBox="0 0 331.2 312.4" enable-background="new 0 0 331.2 312.4" xml:space="preserve">
<path fill="#A8A8A8" stroke="#000000" stroke-width="0.5" stroke-miterlimit="10" d="M92.2,184.3c16.9-11,28.4-19.2,38.9-32.6
	c9.7-12.4,12.8-28.7,13.8-44.4c1.1-15.7,0.6-31.7,4.5-47c3.9-15.3,13.2-30.2,28-35.8c8.7-3.3,18.3-3,27.3-5.2
	c9-2.2,18.4-8.1,19.6-17.3c1.8,6.8-2.4,14.1-8.2,18.1c-5.8,4-13,5.3-20,6.3s-14.2,1.8-20.5,4.8c-14.3,6.9-21.1,23.7-22.6,39.5
	c-1.6,15.8,0.8,31.8-1.3,47.5c-2.8,21.2-13.9,41.3-30.5,54.8c-10.6,8.7-25.2,15.5-35.2,25c-17.7,16.8-23.7,27-12.9,60.8
	c-8.3-5.5-13.8-24.4-12.3-33.2c1.3-7.7,3.8-14.3,11-23.2C76,197.4,86.8,187.9,92.2,184.3z"/>
<path fill="none" stroke="#000000" stroke-width="0.25" stroke-miterlimit="10" d="M138.5,110"/>
<path fill="#605E60" stroke="#000000" stroke-width="0.5" stroke-miterlimit="10" d="M103.4,270.4c3.8-7.5,10.1-13.3,16.6-18.7
	c6.5-5.3,13.3-10.3,18.8-16.6c12.8-14.8,16.8-35.1,21.8-54s12.8-39,29.6-49.1c10-6,22-7.6,33.4-10s23.4-6.4,30.8-15.4
	c-2.6,9.9-12.7,15.8-22.6,18.5c-9.8,2.7-20.3,3.3-29.6,7.5c-12.7,5.7-21.7,17.7-27.4,30.4c-5.7,12.8-8.5,26.6-12.4,40
	c-3.9,13.4-9.1,26.9-18.5,37.2c-8,8.8-18.6,14.8-27.1,23c-4.4,4.2-8.1,9.3-10.4,15c-2.2,5.5-1,10.5-1.8,15.8
	C96.4,291,100.7,275.7,103.4,270.4z"/>
<path fill="#A8A8A8" stroke="#6C6C6C" stroke-width="0.25" stroke-miterlimit="10" d="M138.5,279.6c3.3-9.9,10.4-24.4,18.9-30.5
	c3.7-2.7,7.9-4.7,11-8c5.7-6.2,6.3-15.4,9.3-23.3c5.1-13.5,17.5-23.3,31.3-27.6s26.7-2.9,40.8-0.2c9.8,1.9,24.6,4.5,32.7,10.4
	c7.2,5.3,3.9,9.3,16.8,17.7c7.5,4.9,17.6,8.1,25,3.1c-9,6.7-22.2,7.2-31.7,1.2c-7.4-4.6-12.3-12.5-19.5-17.4
	c-8.1-5.6-18.3-6.8-28.1-8c-12.3-1.4-25-2.9-36.9,0.4c-11.9,3.3-23.1,12.4-25,24.7c-0.9,6.3,0.4,13.4-3.3,18.5
	c-3.7,5-13.6,10.8-18.8,14.2c-5.8,3.8-12.4,14.8-15.4,21c-5.8,12.2-5.4,15.2-11.1,27.4c0.4-4.8,1.1-9.7,2-14.5
	C137.3,284.2,138.5,283.8,138.5,279.6z"/>
<path fill="#E0E2E2" stroke="#000000" stroke-width="0.5" stroke-miterlimit="10" d="M33.7,265.3c0,0-32.7-33.2-13.7-68.7
	s32-27.5,37.5-45S53.3,105.3,95.1,98s33.5-46.5,33.5-46.5c4.2,9.5,4.6,20.6,0.7,30.3c-3.9,9.7-11.8,17.7-21.4,21.7
	c-6.6,2.7-13.9,3.6-20.9,5.4c-7,1.8-14,4.9-18.2,10.7c-8.2,11.5-2.2,27.9-7.2,41.1c-5,13.3-19.7,20-29.3,30.5
	c-8.8,9.7-13.3,23.1-12.1,36.1c1.2,13,8.2,25.4,18.6,33.2L33.7,265.3z"/>
<path fill="#8B8E8E" stroke="#000000" stroke-width="0.5" stroke-miterlimit="10" d="M73.1,258.9c-8.3-5.5-13.2-24.3-12.3-33.2
	c1.2-11.4,10-23.2,17.5-30.2c4.8-4.4,11.3-9.7,16.8-13.2c16-10.2,25.5-17.2,36-30.7c9.7-12.4,12.8-28.7,13.8-44.4
	c0.9-13.5,4.5-47.2-16.3-56c0,0,19.2,17,9.7,65.7c-3.2,16.5-11.2,32.2-23.5,43.6c-10.1,9.3-23,15.1-33.3,24
	c-19.3,16.7-40.9,35.5-20.9,67.8c0,0,4.2,0.8,5.3,1.6c0.4,0.3,1.1,0.6,1.7,1c0.5,0.3,1,0.8,1.5,1.1
	C71.2,257.4,73.1,258.9,73.1,258.9z"/>
<g>
	<path fill="#BFC1C1" stroke="#000000" stroke-width="0.5" stroke-miterlimit="10" d="M28.5,216.6c6.5-20.7,30.9-31.9,37-52.7
		c3.7-12.7,0.3-27.9,8.6-38.2c4.3-5.3,10.8-8.1,17.4-9.8c6.5-1.8,13.3-2.7,19.6-5.3c10.9-4.5,19.7-14,23.2-25.3
		c0.3-1,0.5-1.9,0.8-2.9c-0.7-6.2-1.9-12.3-3.3-18.4c0.6,6.1-0.2,12.2-2.5,17.9c-3.9,9.7-11.8,17.7-21.4,21.7
		c-6.6,2.7-13.9,3.6-20.9,5.4c-7,1.8-14,4.9-18.2,10.7c-8.2,11.5-2.2,27.9-7.2,41.1c-5,13.3-19.7,20-29.3,30.5
		c-8.8,9.7-13.3,23.1-12.1,36.1c1.2,13,8.2,25.4,18.6,33.2l5.5-3.8C30.8,249.2,23.8,231.5,28.5,216.6z"/>
</g>
<path fill="#757777" stroke="#000000" stroke-width="0.5" stroke-miterlimit="10" d="M60.7,252.3c-20.5-31,1.6-51.1,20.9-67.8
	c10.4-9,23.2-14.8,33.3-24c12.3-11.3,20.3-27.1,23.5-43.6c9.4-48.6-9.7-65.7-9.7-65.7c3.8,14.9,7.7,30.3,6.8,45.7
	c-1,15.4-5.3,30.7-13.9,43.5c-8.8,13.1-21.5,22.8-33.8,32.7s-31.9,24.2-39.4,38c-7.6,13.8-2.2,28,6.7,41L60.7,252.3z"/>
<g>
	<path fill="#A8A8A8" stroke="#000000" stroke-width="0.5" stroke-miterlimit="10" d="M44.3,256.9c-13.5-7.7-20.5-25.4-15.8-40.3
		c6.5-20.7,30.9-31.9,37-52.7c3.7-12.7,0.3-27.9,8.6-38.2c4.3-5.3,10.8-8.1,17.4-9.8c6.5-1.8,13.3-2.7,19.6-5.3
		c10.9-4.5,19.7-14,23.2-25.3c0.3-1,0.5-1.9,0.8-2.9c1.2,8.9-0.8,19.7-8.1,25.9c-7.4,6.2-17,8.9-26.2,12c-9.1,3.1-18.6,7.2-24,15.2
		c-7.4,10.9-5.1,25.6-9.7,37.9c-6.4,17.1-25.1,27.9-29.7,45.6c-3.3,13,2.6,27.8,14,34.8L44.3,256.9z"/>
</g>
<path fill="#8B8E8E" stroke="#000000" stroke-width="0.5" stroke-miterlimit="10" d="M59.3,186.8c3.2-4.1,6-8.5,7.8-13.3
	c4.6-12.3,2.3-27,9.7-37.9c5.4-8,14.9-12.1,24-15.2s18.8-5.7,26.2-12c1.6-1.4,3-3,4.1-4.7c-2.5,6.3-7.7,11.3-13.6,14.7
	c-5.9,3.4-12.4,5.6-18.5,8.4c-6.2,2.8-12.2,6.4-16.4,11.7c-5.6,7.2-7.1,16.7-9.3,25.5C71,172.9,70.7,176.2,59.3,186.8z"/>
<path fill="#757777" stroke="#000000" stroke-width="0.5" stroke-miterlimit="10" d="M65.6,180.5c3.9-5,6.1-10.4,7.6-16.5
	c2.2-8.9,3.7-18.3,9.3-25.5c4.2-5.4,10.2-8.9,16.4-11.7c6.2-2.8,12.6-5,18.5-8.4c4.5-2.6,9.5-7.5,12.3-11.8
	c-2,6.9-5.5,13.8-10.5,18.1c-5,4.3-11,7.1-16.8,10.1c-5.8,3.1-11.6,6.6-15.6,11.8c-3.9,5.1-5.9,11.4-8.4,17.3
	C75.8,169.8,76.2,171.7,65.6,180.5z"/>
<path fill="#605E60" stroke="#000000" stroke-width="0.5" stroke-miterlimit="10" d="M129.2,109.2c0,0-4.6,9.1-4.6,9.1
	c-1.4,2.3-3.1,4.4-5.3,6.3c-5,4.3-11,7.1-16.8,10.1c-5.8,3.1-11.6,6.6-15.6,11.8c-3.9,5.1-5.9,11.4-8.4,17.3
	c-1.9,4.4-2.1,6.6-6.5,11c5.5-4,7.4-5.2,11-9.2c5.1-5.7,5.7-14.8,11.9-19.2c3.5-2.5,8-3.1,11.9-4.9c4.5-2.1,9.3-5.1,12-9.2
	C127,119.9,127.2,113.7,129.2,109.2z"/>
<path fill="#4B4C4C" stroke="#000000" stroke-width="0.5" stroke-miterlimit="10" d="M110,143c1.5-1.9,3.2-3.2,6-7.2
	c-3.1,2.2-5.4,4-9.2,5.8c-3.9,1.8-8.4,2.4-11.9,4.9c-6.2,4.4-6.9,13.5-11.9,19.2c-2.1,2.4-3.7,3.8-5.8,5.4l0,0
	C89.3,161.7,100.3,155.4,110,143z"/>
<g>
	<path fill="#605E60" stroke="#000000" stroke-width="0.5" stroke-miterlimit="10" d="M131,92.8c-0.2,30.2-16.7,44.5-21,50.1
		c-10.4,13.4-22.3,19.5-35.5,30.1c-5.9,4.7-12.8,11.2-18.2,17.3c-0.9,1.1-1.9,2.2-2.8,3.3c0,0,0,0,0,0c-1.1,1.3-2.2,2.6-3.4,4
		c-5.5,6.5-10.7,13.2-12.8,21.4c-3.3,12.9,2.6,27.7,14,34.7l3.7-1.7c-8.9-13-14.2-27.2-6.7-41c7.6-13.8,27.1-28.2,39.4-38
		c12.3-9.8,25.1-19.6,33.8-32.7c8.6-12.8,22.2-35.3,7.5-87.5C128.9,53.7,131.3,92,131,92.8z"/>
	<polygon fill="#605E60" stroke="#000000" stroke-width="0.5" stroke-miterlimit="10" points="50.2,254.3 50.2,254.3 50.2,254.3 	
		"/>
</g>
<path fill="#757777" stroke="#000000" stroke-width="0.5" stroke-miterlimit="10" d="M101.7,292.1c-3.9-7-1.1-16.4,1.7-21.7
	c3.8-7.5,10.1-13.3,16.6-18.7c6.5-5.3,13.3-10.3,18.8-16.6c12.8-14.8,16.8-35.1,21.8-54s12.8-39,29.6-49.1c10-6,22-7.6,33.4-10
	c2.5-0.5,6.7-1.6,9.2-2.4c-26.8-4.5-56.4,9.5-69.9,33.1c-13,22.7-12.2,51.9-27.3,73.4c-7.3,10.4-17.8,18.1-26.6,27.2
	c-8.9,9.1-16.6,20.8-15.9,33.5c0,0,2.8,4.6,4.3,5.4C98.4,292.5,101.7,292.1,101.7,292.1z"/>
<path fill="#2F3030" stroke="#000000" stroke-width="0.5" stroke-miterlimit="10" d="M107.9,145.6c-4.1,2.2-9,4.2-11,6
	c-5.1,4.5-5.4,6.6-6.9,10C96.8,156.6,102,152.8,107.9,145.6z"/>
<path fill="#8B8E8E" stroke="#000000" stroke-width="0.5" stroke-miterlimit="10" d="M93.1,286.7c-0.7-12.7,7-24.4,15.9-33.5
	c8.9-9.1,19.3-16.8,26.6-27.2c15-21.5,14.2-50.6,27.3-73.4c13.6-23.6,36.2-30.1,51.6-35.5c4-1.4,13.2-5.8,16.8-23.1
	c-28.6,26.2-29.9,15.2-58.6,34.3c-14.6,9.8-20.9,28.2-25.9,45.1s-9,34.5-19,49.1c-6.6,9.7-15.5,17.5-23.5,26S88.9,266.6,86.4,278
	L93.1,286.7z"/>
<path fill="#FFFFFF" stroke="#000000" stroke-width="0.5" stroke-miterlimit="10" d="M77,226.6c7.2-16.6,17.8-25.2,32.5-34.5
	c13.6-8.5,24.7-18.7,32.8-30.1c1.5-3.3,3-6.6,4.7-9.8c1.9-3.8,4.1-7.5,6.4-11c2.6-7.2,4.3-14.7,4.8-22.5c0.8-12.1-0.6-24.3,0.4-36.4
	c1-12.1,5.6-29.5,15-37.1c11-9,29.7-4,44.6-18.8c6.1-6.1,10.6-17,6.1-24.4c1.8,6.8-2.4,14.1-8.2,18.1s-13,5.3-20,6.3
	c-7,1-14.2,1.8-20.5,4.8c-14.3,6.9-21.1,23.7-22.6,39.5c-1.6,15.8,0.8,31.8-1.3,47.5c-2.8,21.2-13.9,41.3-30.5,54.8
	c-10.6,8.7-25.2,15.5-35.2,25c-17.7,16.8-23.7,27-12.9,60.8c0,0,1.1,3.1,1.5,4.5c0.2,0.6,0.4,1.1,0.6,1.6c0.9,1.8,1.1-1,1.1-1
	C76.2,263.5,71.4,239.7,77,226.6z"/>
<path fill="#FFFFFF" stroke="#000000" stroke-width="0.5" stroke-miterlimit="10" d="M81.7,272.8c7.5-12.6,16.6-25.3,24.5-35.9
	c5-6.7,14.8-16.3,18.3-22.3c10.6-18.2,15.4-48.5,22.5-62.3c7.1-13.8,16.9-26.9,30.4-34.6c10-5.7,21.8-8.3,31.1-15.1
	c10.2-7.4,16.6-19.3,19.7-31.5c3.2-12.2,5-24.9,5.4-37.5c4.9,22.6,3.7,52.9-3.6,60.5c-22.7,23.8-28.6,15-57.3,34.2
	c-14.6,9.8-20.9,28.2-25.9,45.1s-9,34.5-19,49.1c-6.6,9.7-15.5,17.5-23.5,26s-15.4,18.2-17.9,29.6c0,0-3.1-2.8-3.9-3.9
	C81.3,272.2,81.7,272.8,81.7,272.8z"/>
<path fill="#A8A8A8" stroke="#000000" stroke-width="0.5" stroke-miterlimit="10" d="M76.8,267c-0.1-0.4-5.4-27.3,0.2-40.3
	c7.2-16.6,17.8-25.2,32.5-34.5c13.6-8.5,24.7-18.7,32.8-30.1c-3.4,11.7-6.7,18.1-13.5,24.6c-6.7,6.6-14.9,11.5-22.6,16.8
	S90.9,214.8,86,222.9c-4.4,7.1-6.3,15.5-7,23.8c-0.6,8.3,0,15.6,0.7,23.9L76.8,267z"/>
<path fill="#A8A8A8" stroke="#000000" stroke-width="0.5" stroke-miterlimit="10" d="M79.8,270.7c-0.7-8.3-1.3-15.6-0.7-23.9
	c0.6-8.3,2.6-16.7,7-23.8c4.9-8,12.5-14,20.2-19.4s15.9-10.2,22.6-16.8c4.4-4.3,7.3-8.4,9.8-14.1c-2.5,10.7-10.2,19.5-18.6,26.6
	s-17.7,13.4-24.8,21.8C85,233.2,80,249.6,81.8,265.4c0,0,0.7,4.2-1,6.1L79.8,270.7z"/>
</svg>
