<?xml version="1.0" encoding="utf-8"?>
<!-- Generator: Adobe Illustrator 20.1.0, SVG Export Plug-In . SVG Version: 6.00 Build 0)  -->
<svg version="1.1" baseProfile="tiny" id="Capa_1" xmlns="http://www.w3.org/2000/svg" xmlns:xlink="http://www.w3.org/1999/xlink"
	 x="0px" y="0px" viewBox="0 0 595.3 800" xml:space="preserve">
<path fill="#26EDE7" stroke="#211915" stroke-miterlimit="10" d="M241.6,314.8c0,0-10-2.6-10-8.3c0-5.7,4-14.7,1.5-17.7
	s0-26,10.3-26.7c10.2-0.7,26-9,27-13s10.5-22,15.4-21c4.9,1,23.6-0.3,24.2-5c0,0,9.3,27-2.3,40.7c0,0,10.7,2,12.7-4.3
	c0,0-6.7,26.4-15.3,27.6c0,0,23.7-0.6,27.3,7.1c3.7,7.7,13.3,5.3,13.3,5.3s-26.3,16.3-45.7,12.4c0,0-11.6,0.1-23.5,17.5
	c0,0-2.1-4.5-10.9-4.5l-1.9-2.8l-4.8-6.1l-2.1-4.1C256.9,311.8,250.2,301.4,241.6,314.8z"/>
</svg>
